<svg xmlns="http://www.w3.org/2000/svg" viewBox="0 0 417.64 113.55"><title>Noisia Trinity logo 2016 white</title><path d="M91.55,22A49.17,49.17,0,1,0,106,56.77,49,49,0,0,0,91.55,22ZM56.77,17.65A18.16,18.16,0,1,1,38.62,35.81,18.16,18.16,0,0,1,56.77,17.65ZM74.93,85.44A18.16,18.16,0,0,1,56.78,67.28,18.16,18.16,0,1,1,38.62,49.12,18.16,18.16,0,0,1,56.78,67.28,18.16,18.16,0,1,1,74.93,85.44Z" style="fill:#fff"/><path d="M56.77,0a56.77,56.77,0,1,0,56.78,56.77A56.77,56.77,0,0,0,56.77,0Zm0,109.74a53,53,0,1,1,53-53A53,53,0,0,1,56.77,109.74Z" style="fill:#fff"/><path d="M170.46,90.73l-21.69-34v34H132.13V22.92h14.55l21.69,34v-34H185V90.73H170.46Z" style="fill:#fff"/><path d="M238.36,83.6A25.88,25.88,0,0,1,230,89.3a27.26,27.26,0,0,1-10.56,1.9q-11.32,0-17.5-6.18t-7.23-12a97.15,97.15,0,0,1-1-16.22,100.11,100.11,0,0,1,1-16.41A18.37,18.37,0,0,1,200,30.48a28,28,0,0,1,8.89-6.23,27.29,27.29,0,0,1,10.56-1.9q11.32,0,17.5,6.18t7.23,12a97.26,97.26,0,0,1,1,16.22,100.16,100.16,0,0,1-1,16.41A19.66,19.66,0,0,1,238.36,83.6ZM226.1,40.13A6.66,6.66,0,0,0,223.38,38a9.37,9.37,0,0,0-3.95-.81,9,9,0,0,0-3.9.81,8,8,0,0,0-2.9,2.33A10.81,10.81,0,0,0,210.88,45a79.07,79.07,0,0,0-.57,11.75,78,78,0,0,0,.57,11.7,10.8,10.8,0,0,0,1.71,4.61,8.4,8.4,0,0,0,2.95,2.38,8.58,8.58,0,0,0,3.9.9q4.37,0,6.18-2.38A12.75,12.75,0,0,0,228,68.47a78,78,0,0,0,.57-11.7,79.21,79.21,0,0,0-.57-11.7A11.22,11.22,0,0,0,226.1,40.13Z" style="fill:#fff"/><path d="M253.87,90.73V22.92h16.64V90.73H253.87Z" style="fill:#fff"/><path d="M322.14,55.89q-4.61-4.71-13.65-6l-0.05.06,0-.09-8.18-1.14a8.46,8.46,0,0,1-2.85-.71,6.65,6.65,0,0,1-1.76-1.24,5.11,5.11,0,0,1-1-1.43,4.14,4.14,0,0,1-.33-1.76,5.77,5.77,0,0,1,2-4.42q2-1.85,6.13-1.85h1.24a19.79,19.79,0,0,1,6.94,1,13.06,13.06,0,0,1,4.66,2.95L325.77,30.8a25.35,25.35,0,0,0-9.84-6.23,40.56,40.56,0,0,0-13-1.85q-11.41,0-18.07,6a19.79,19.79,0,0,0-6.66,15.41q0,8.85,4.61,13.55t13.65,6l8.18,1.14v0l0,0.05a8.46,8.46,0,0,1,2.85.71,6.65,6.65,0,0,1,1.76,1.24,5.11,5.11,0,0,1,1,1.43,4.14,4.14,0,0,1,.33,1.76,5.77,5.77,0,0,1-2,4.42q-2,1.85-6.13,1.85h-1.24a19.79,19.79,0,0,1-6.94-1,13.06,13.06,0,0,1-4.66-2.95L279.2,82.76A25.35,25.35,0,0,0,289,89a40.56,40.56,0,0,0,13,1.85q11.41,0,18.07-6a19.79,19.79,0,0,0,6.66-15.41Q326.75,60.6,322.14,55.89Z" style="fill:#fff"/><path d="M334.9,90.73V22.92h16.64V90.73H334.9Z" style="fill:#fff"/><path d="M387,48.59L372.94,90.73H355.54l24.63-67.81H393l24.63,67.81H400.24Z" style="fill:#fff"/></svg>